# xmcd CD database file
#
# Track frame offsets:
#	150
#	26683
#	49390
#	73815
#	94175
#	112639
#	132844
#	153500
#	179560
#	201973
#	227238
#	248556
#	271703
#	292636
#	319042
#
# Disc length: 4524 seconds
#
# Revision: 10
# Processed by: cddbd v1.5.1PL0 Copyright (c) Steve Scherf et al.
# Submitted via: CDex 1.50
#
DISCID=cd11aa0f
DTITLE=Mr.Children - MR.CHILDREN 1992-1995
DYEAR=2001
DGENRE=Pop
TTITLE0=Kimi ga ita Natsu
TTITLE1=Hoshi ni naretara
TTITLE2=Dakishimetai
TTITLE3=Replay
TTITLE4=LOVE
TTITLE5=my life
TTITLE6=CROSS ROAD
TTITLE7=Innocent World
TTITLE8=Dance Dance Dance
TTITLE9=Ame nochi Hare
TTITLE10=Over
TTITLE11=Tommorow never knows
TTITLE12=every body goes
TTITLE13=es -Theme of es-
TTITLE14=Seasow game
EXTD=YEAR: 2001
EXTT0=
EXTT1=
EXTT2=
EXTT3=
EXTT4=
EXTT5=
EXTT6=
EXTT7=
EXTT8=
EXTT9=
EXTT10=
EXTT11=
EXTT12=
EXTT13=
EXTT14=
PLAYORDER=
